<?xml version="1.0" standalone="no"?>
<!DOCTYPE svg PUBLIC "-//W3C//DTD SVG 20010904//EN"
 "http://www.w3.org/TR/2001/REC-SVG-20010904/DTD/svg10.dtd">
<svg version="1.0" xmlns="http://www.w3.org/2000/svg"
 width="744.000000pt" height="744.000000pt" viewBox="0 0 744.000000 744.000000"
 preserveAspectRatio="xMidYMid meet">
<metadata>
Created by potrace 1.11, written by Peter Selinger 2001-2013
</metadata>
<g transform="translate(0.000000,744.000000) scale(0.100000,-0.100000)"
fill="#000000" stroke="none">
<path d="M2187 6394 c-1 -1 -54 -4 -117 -7 -63 -3 -124 -8 -135 -10 -11 -3
-42 -8 -70 -11 -59 -8 -296 -66 -310 -75 -5 -4 -37 -15 -70 -26 -33 -10 -64
-22 -69 -27 -28 -23 -36 -7 -36 72 l0 80 -688 0 -687 0 0 -2670 c0 -2366 2
-2670 15 -2671 8 -1 318 -2 687 -3 l673 -1 0 70 c0 39 1 736 1 1550 1 1583 0
1541 50 1695 92 279 310 491 577 561 102 28 269 29 367 5 235 -60 440 -229
546 -448 21 -44 26 -48 58 -48 131 -1 598 -1 1003 0 l478 0 34 69 c90 178 265
334 446 399 120 43 262 57 385 39 164 -26 338 -121 453 -249 20 -23 42 -46 47
-52 61 -67 138 -234 172 -376 17 -71 18 -169 18 -1640 0 -861 3 -1567 7 -1570
5 -4 1386 -5 1409 -1 7 1 4 3218 -3 3246 -3 11 -9 46 -13 79 -69 569 -362
1124 -785 1486 -14 12 -35 30 -47 41 -102 87 -323 227 -457 289 -157 73 -368
142 -506 165 -19 3 -42 8 -50 10 -8 2 -44 7 -80 10 -36 4 -78 9 -95 11 -38 5
-320 4 -360 -1 -16 -2 -55 -7 -85 -10 -254 -29 -588 -147 -798 -281 -29 -19
-55 -34 -57 -34 -18 0 -233 -168 -313 -245 -29 -27 -56 -51 -61 -53 -4 -1 -21
10 -37 25 -381 355 -850 567 -1326 599 -151 10 -168 10 -171 8z m-1016 -214
c1 -3 2 -62 3 -132 1 -70 3 -129 6 -131 3 -3 65 22 139 54 367 161 557 209
851 213 254 4 488 -39 720 -131 275 -109 466 -237 701 -469 64 -62 120 -114
124 -114 4 0 65 55 134 123 246 240 480 390 754 486 144 50 243 73 422 97 72
10 299 11 375 2 125 -14 140 -17 304 -53 82 -18 254 -84 368 -141 201 -100
356 -211 519 -374 331 -328 545 -753 614 -1220 4 -25 10 -56 13 -70 3 -14 7
-710 9 -1547 l4 -1521 -501 0 c-275 0 -501 3 -501 7 -1 3 -2 661 -4 1461 -2
1305 -4 1464 -18 1545 -95 514 -524 893 -1002 886 -119 -2 -151 -6 -248 -31
-223 -58 -433 -207 -574 -409 -26 -36 -49 -68 -51 -71 -5 -6 -1232 -8 -1250
-2 -7 2 -32 32 -54 66 -56 83 -158 187 -245 252 -40 30 -75 54 -78 54 -3 0
-22 10 -43 23 -77 48 -231 99 -337 112 -427 50 -826 -171 -1028 -570 -62 -123
-99 -247 -115 -390 -4 -38 -7 -714 -7 -1501 l0 -1431 -482 0 -483 0 0 2462 c0
1354 2 2464 4 2466 6 6 956 5 957 -1z"/>
<path d="M3019 4006 c-4 -3 -3 -2949 1 -2954 6 -8 1399 -10 1401 -2 3 12 5
2936 2 2946 -3 7 -220 10 -703 10 -385 0 -700 0 -701 0z m1198 -1478 l-2
-1273 -495 0 -495 0 -1 1273 -1 1272 498 0 497 0 -1 -1272z"/>
</g>
</svg>
