<?xml version="1.0" standalone="no"?>
<!DOCTYPE svg PUBLIC "-//W3C//DTD SVG 20010904//EN"
 "http://www.w3.org/TR/2001/REC-SVG-20010904/DTD/svg10.dtd">
<svg version="1.0" xmlns="http://www.w3.org/2000/svg"
 width="788.000000pt" height="788.000000pt" viewBox="0 0 788.000000 788.000000"
 preserveAspectRatio="xMidYMid meet">
<metadata>
Created by potrace 1.11, written by Peter Selinger 2001-2013
</metadata>
<g transform="translate(0.000000,788.000000) scale(0.100000,-0.100000)"
fill="#000000" stroke="none">
<path d="M2200 6584 c-140 -19 -324 -64 -453 -112 l-105 -39 2 54 c2 31 -2 57
-8 61 -6 3 -327 7 -713 7 l-703 0 0 -2642 0 -2641 710 0 c391 0 710 3 711 7 0
3 2 706 4 1561 1 855 5 1569 9 1585 71 331 220 534 477 654 115 54 207 71 349
67 290 -9 532 -170 667 -443 21 -43 43 -73 52 -74 9 -1 347 -2 753 -3 l736 -1
33 69 c94 196 261 348 456 414 335 115 705 -15 906 -318 69 -105 106 -199 143
-365 3 -16 7 -732 8 -1590 l2 -1560 712 -1 713 -2 -4 1622 c-1 891 -6 1632 -9
1646 -4 14 -9 51 -13 83 -3 32 -8 64 -10 70 -2 7 -6 29 -9 49 -20 137 -104
389 -191 573 -265 561 -757 999 -1325 1180 -140 45 -183 56 -280 71 -19 3 -42
7 -50 9 -71 19 -427 27 -543 12 -80 -10 -183 -26 -199 -32 -7 -2 -24 -6 -38
-9 -41 -7 -192 -53 -261 -79 -83 -31 -283 -128 -287 -139 -2 -4 -8 -8 -14 -8
-34 0 -334 -224 -424 -317 -18 -18 -36 -33 -41 -33 -4 0 -31 22 -59 48 -315
295 -732 498 -1143 558 -25 4 -55 9 -66 11 -53 12 -398 10 -495 -3z"/>
<path d="M3230 2720 l0 -1447 710 -1 710 0 0 1447 0 1447 -710 0 -710 1 0
-1447z"/>
</g>
</svg>
