<?xml version="1.0" standalone="no"?>
<!DOCTYPE svg PUBLIC "-//W3C//DTD SVG 20010904//EN"
 "http://www.w3.org/TR/2001/REC-SVG-20010904/DTD/svg10.dtd">
<svg version="1.0" xmlns="http://www.w3.org/2000/svg"
 width="788.000000pt" height="788.000000pt" viewBox="0 0 788.000000 788.000000"
 preserveAspectRatio="xMidYMid meet">
<metadata>
Created by potrace 1.11, written by Peter Selinger 2001-2013
</metadata>
<g transform="translate(0.000000,788.000000) scale(0.100000,-0.100000)"
fill="#000000" stroke="none">
<path d="M2347 6614 c-1 -1 -45 -5 -97 -9 -182 -13 -368 -54 -543 -120 -52
-19 -97 -35 -101 -35 -3 0 -5 24 -5 53 1 28 1 64 0 80 l-1 27 -688 0 -687 0 0
-2670 c0 -1468 2 -2671 5 -2671 27 -7 1363 -2 1367 5 3 4 6 697 6 1540 0 842
3 1560 8 1596 11 84 53 219 91 295 102 202 279 359 478 423 374 120 782 -62
961 -431 l23 -47 757 0 757 0 34 66 c48 94 145 212 229 278 79 62 205 127 284
146 28 6 59 14 70 17 11 2 60 6 109 7 165 4 317 -40 456 -134 64 -44 168 -148
211 -211 74 -109 130 -249 153 -383 11 -58 13 -405 12 -1620 -1 -1024 2 -1546
9 -1547 6 -1 325 -2 711 -3 l701 -1 -2 1610 c-2 886 -5 1630 -9 1655 -4 25 -9
61 -12 80 -28 198 -94 445 -160 602 -188 440 -481 796 -866 1048 -302 199
-594 301 -983 346 -38 5 -316 4 -370 -1 -59 -5 -121 -14 -205 -30 -41 -9 -85
-17 -97 -19 -90 -18 -309 -99 -437 -163 -179 -90 -368 -221 -510 -354 -43 -40
-70 -58 -78 -53 -7 4 -33 27 -58 50 -252 236 -585 420 -923 508 -81 21 -126
30 -252 51 -52 9 -341 24 -348 19z m-957 -216 c3 -4 5 -66 5 -138 0 -71 0
-130 1 -130 3 0 87 36 129 55 199 90 368 151 495 179 231 51 531 55 745 9 39
-8 81 -17 95 -19 101 -19 352 -116 469 -181 181 -100 306 -195 478 -364 67
-65 125 -119 129 -119 4 0 66 58 139 129 222 215 420 348 680 456 85 35 267
87 349 99 21 4 41 8 45 10 13 8 160 19 276 20 942 16 1780 -695 1980 -1679 9
-44 19 -98 21 -120 3 -22 8 -51 12 -65 3 -14 8 -710 9 -1546 l4 -1522 -501 0
c-275 0 -501 3 -501 7 -1 3 -2 659 -4 1456 -2 1340 -3 1458 -19 1550 -81 450
-420 801 -846 875 -72 13 -195 15 -280 5 -265 -31 -546 -207 -702 -438 -22
-34 -43 -64 -45 -67 -3 -3 -287 -5 -633 -5 l-628 0 -28 45 c-124 196 -326 352
-549 425 -112 36 -171 45 -301 45 -100 0 -139 -4 -229 -26 -332 -82 -618 -355
-730 -699 -34 -103 -35 -111 -54 -255 -3 -30 -6 -696 -6 -1480 0 -969 -3
-1427 -10 -1432 -5 -4 -223 -8 -482 -8 l-473 0 0 2463 c0 1355 2 2466 4 2468
8 8 951 5 956 -3z"/>
<path d="M3243 4216 c-12 -18 -9 -2945 2 -2949 9 -3 1366 -1 1390 2 7 1 10
498 10 1479 l0 1477 -698 1 c-488 1 -700 -2 -704 -10z m1195 -1471 l0 -1276
-497 2 -498 2 1 1274 0 1273 497 0 497 0 0 -1275z"/>
</g>
</svg>
